<?xml version="1.0" encoding="UTF-8" standalone="no"?>
<!-- Created with Inkscape (http://www.inkscape.org/) -->

<svg
   width="127.61061mm"
   height="98.878586mm"
   viewBox="0 0 127.61061 98.878586"
   version="1.1"
   id="svg1"
   xml:space="preserve"
   xmlns="http://www.w3.org/2000/svg"
   xmlns:svg="http://www.w3.org/2000/svg"><defs
     id="defs1" /><g
     id="layer1"
     transform="translate(-59.856241,-45.626836)"><path
       style="fill:#ff0000;fill-opacity:0.936599;stroke:none;stroke-width:0.355251;stroke-opacity:1"
       d="m 108.28711,45.626838 8.6447,9.63266 7.90372,10.620627 7.40974,12.843561 2.71691,7.162745 3.21088,8.397698 -0.49399,-11.855571 -0.4239,-1.058844 8.47049,5.676109 6.81131,4.977488 3.66766,3.143698 -2.53243,2.27043 -5.67609,4.366231 -5.15216,3.75496 -4.89018,3.40567 -0.0873,-6.37471 -0.17465,-5.676101 -1.3972,4.628211 -3.84228,9.95502 -3.31834,5.93807 -4.10425,6.72399 -4.10426,6.0254 -5.32681,6.63667 -6.63666,7.68457 5.15214,-3.58031 6.54935,-4.89018 7.77189,-5.93807 6.54934,-5.32681 6.02541,-4.80285 6.63668,-5.85075 14.14658,-13.27335 2.7944,2.35777 2.00845,2.09578 2.53243,2.88173 2.88171,3.49299 2.35775,3.05634 4.45357,5.93809 3.40566,5.93807 3.49299,7.16062 1.74648,4.62821 -0.17463,-3.40567 c 0,0 -1.7465,-9.51838 -1.7465,-9.86768 0,-0.3493 -2.0958,-9.60571 -2.0958,-9.60571 l -1.57184,-5.41413 -1.13522,-2.88171 0.61127,4.89018 v 2.18312 l -4.54087,-6.98598 -2.27046,-3.31833 -2.79438,-3.40567 -2.88171,-3.492981 -1.30987,-1.8338 6.02541,-7.50993 3.9296,-5.326793 2.00846,-3.318342 1.30988,-2.27044 0.17464,-0.611269 0.26198,0.96057 -0.26198,2.357757 -0.17464,3.493002 1.57184,-4.802856 2.09579,-8.208516 0.96057,-4.366233 1.22255,-6.112732 0.52394,-5.3268 v -1.571845 l -1.65916,4.453557 -2.0958,4.453555 -3.66763,6.549351 -3.23101,4.802856 -3.66763,5.239481 -4.27891,5.152141 -3.31835,3.92962 -2.96903,2.794382 -3.75496,-4.016928 -5.50145,-4.890181 -8.38317,-7.335271 -6.46201,-5.588775 -6.20006,-4.890185 -6.63667,-5.326798 -5.50145,-4.104259 -4.54088,-3.318335 -4.19158,-2.881715 z"
       id="path1" /><path
       id="text3"
       style="font-size:54.1435px;writing-mode:lr-tb;direction:ltr;fill:#ff0000;fill-opacity:0.937255;stroke:none;stroke-width:4.65534;stroke-opacity:1"
       d="m 75.570616,78.470176 c -6.30025,0 -10.494063,0.907859 -12.582041,2.723493 -2.069823,1.815632 -3.104654,5.474047 -3.104654,10.975416 l -0.02768,3.295231 0.0085,1.68807 c 0.05847,0.005 0.11671,0.0111 0.175143,0.017 0.134083,-0.0131 0.268916,-0.0178 0.40352,-0.0218 0.135535,-0.005 0.270517,-0.006 0.405649,0.006 0.01555,0.002 0.03128,0.003 0.04684,0.004 0.0676,-0.003 0.1351,-0.003 0.202824,-0.002 0.112144,0.002 0.224434,0.007 0.336444,0.0112 0.114281,0.007 0.228468,0.0141 0.342832,0.0202 0.109806,3.7e-4 0.219699,4e-4 0.329524,5.4e-4 0.141835,1.7e-4 0.28351,-4e-5 0.425345,0 0.15561,2e-5 0.31126,5.1e-4 0.46687,5.2e-4 h 0.389678 c 0.120041,9.3e-4 0.239297,-0.0163 0.358802,-0.0266 0.03799,-0.001 0.0756,-0.003 0.113391,-0.006 l 0.0527,-4.768763 c 0,-4.611708 0.608414,-7.489237 1.824888,-8.633086 1.216474,-1.162005 4.248485,-1.743439 9.096225,-1.743439 5.24718,0 8.48817,0.363463 9.7228,1.089716 1.25279,0.708097 1.87919,2.578307 1.87919,5.610415 v 0.925753 h 4.11239 v -1.415441 c 0,-4.121488 -0.91685,-6.772585 -2.75064,-7.952746 -1.83379,-1.198319 -5.91016,-1.797206 -12.22856,-1.797206 z m 32.599914,0 c -5.26534,0 -8.751274,0.798874 -10.457964,2.39663 -1.7067,1.579601 -2.56007,4.820593 -2.56007,9.722803 l -0.10913,5.991567 0.082,6.753904 c 0,5.35612 0.89834,8.87856 2.69581,10.5671 1.79748,1.67039 5.555874,2.50576 11.275124,2.50576 5.6103,0 9.29623,-0.76289 11.0574,-2.28802 1.76116,-1.54329 2.6415,-4.75677 2.6415,-9.64082 0,-4.502769 -0.84384,-7.516804 -2.53238,-9.041924 -1.68854,-1.525152 -5.02952,-2.287506 -10.02251,-2.287506 -5.55584,0 -9.12378,1.107299 -10.703374,3.322376 h -0.0815 v -7.571044 c 0,-2.995796 0.617414,-4.893519 1.852034,-5.692396 1.25279,-0.798879 4.22132,-1.198316 8.90565,-1.198316 3.08657,0 5.12925,0.326957 6.12785,0.980585 0.9986,0.635471 1.49749,1.942766 1.49749,3.921807 0,0.217876 -0.0359,0.662812 -0.1086,1.334596 h 4.08524 l 0.0272,-1.280296 c 0,-3.304454 -0.95336,-5.546587 -2.85977,-6.726749 -1.88826,-1.180162 -5.49218,-1.770057 -10.81198,-1.770057 z m 0.73517,18.2196 c 4.48461,0 7.25368,0.44493 8.30675,1.3346 1.05307,0.88966 1.57947,3.222794 1.57947,6.999314 0,3.52233 -0.53539,5.70997 -1.60662,6.56332 -1.07123,0.85334 -3.7858,1.28029 -8.14331,1.28029 -4.48462,0 -7.27168,-0.5264 -8.36105,-1.57948 -1.089384,-1.05307 -1.633764,-3.75865 -1.633764,-8.11617 0,-2.68714 0.61685,-4.439374 1.851484,-5.256414 1.25279,-0.81703 3.92187,-1.22546 8.00704,-1.22546 z m -34.287984,0.8443 v 3.540654 h 11.81972 c 0.14525,1.18017 0.21773,1.94253 0.21773,2.2875 0,4.30305 -0.53541,6.96314 -1.60663,7.97989 -1.05307,1.01676 -3.82214,1.52518 -8.30675,1.52518 -5.8645,0 -9.477414,-0.53593 -10.83914,-1.60716 -1.343568,-1.07122 -2.015468,-3.94875 -2.015468,-8.63308 l -0.01225,-2.39983 c -0.06196,1.8e-4 -0.123864,10e-4 -0.185789,0.004 -0.08069,0.004 -0.161417,0.0103 -0.241686,0.0192 -0.135131,0.015 -0.270512,0.028 -0.406714,0.0229 h -0.465271 -0.259253 c -0.225887,0.0149 -0.452385,0.0239 -0.678743,0.0309 -0.377793,0.0103 -0.756,0.0123 -1.133902,0.0143 -0.207703,7.9e-4 -0.41522,0.001 -0.622847,0.001 l 0.0032,0.61912 c 0,6.55444 0.934839,10.77576 2.804941,12.66403 1.870102,1.87009 6.082442,2.80546 12.636872,2.80546 6.93572,0 11.22053,-0.78987 12.85461,-2.36947 1.65222,-1.59776 2.47861,-5.74661 2.47861,-12.44629 0,-1.743019 -0.0365,-3.095814 -0.10913,-4.058104 z" /></g></svg>
